<svg width="71" height="24" viewBox="0 0 71 24" fill="none" xmlns="http://www.w3.org/2000/svg">
<path d="M4.09232 11.744L0.22032 0.79998H3.93232L6.30032 8.03198H6.36432L8.79632 0.79998H12.1243L8.25232 11.744L12.3163 23.2H8.60432L6.04432 15.392H5.98032L3.35632 23.2H0.0283203L4.09232 11.744Z" fill="white"/>
<path d="M13.9883 0.79998H23.3003V3.99998H17.5083V10.24H22.0523V13.44H17.5083V23.2H13.9883V0.79998Z" fill="white"/>
<path d="M30.0763 23.52C28.3483 23.52 27.0257 23.0293 26.1083 22.048C25.191 21.0666 24.7323 19.68 24.7323 17.888V6.11198C24.7323 4.31998 25.191 2.93331 26.1083 1.95198C27.0257 0.970647 28.3483 0.47998 30.0763 0.47998C31.8043 0.47998 33.127 0.970647 34.0443 1.95198C34.9617 2.93331 35.4203 4.31998 35.4203 6.11198V17.888C35.4203 19.68 34.9617 21.0666 34.0443 22.048C33.127 23.0293 31.8043 23.52 30.0763 23.52ZM30.0763 20.32C31.2923 20.32 31.9003 19.584 31.9003 18.112V5.88798C31.9003 4.41598 31.2923 3.67998 30.0763 3.67998C28.8603 3.67998 28.2523 4.41598 28.2523 5.88798V18.112C28.2523 19.584 28.8603 20.32 30.0763 20.32Z" fill="white"/>
<path d="M37.8008 0.79998H41.3208V20H47.1128V23.2H37.8008V0.79998Z" fill="white"/>
<path d="M48.8008 0.79998H52.3208V23.2H48.8008V0.79998Z" fill="white"/>
<path d="M60.0451 23.52C58.3171 23.52 56.9944 23.0293 56.0771 22.048C55.1597 21.0666 54.7011 19.68 54.7011 17.888V6.11198C54.7011 4.31998 55.1597 2.93331 56.0771 1.95198C56.9944 0.970647 58.3171 0.47998 60.0451 0.47998C61.7731 0.47998 63.0957 0.970647 64.0131 1.95198C64.9304 2.93331 65.3891 4.31998 65.3891 6.11198V17.888C65.3891 19.68 64.9304 21.0666 64.0131 22.048C63.0957 23.0293 61.7731 23.52 60.0451 23.52ZM60.0451 20.32C61.2611 20.32 61.8691 19.584 61.8691 18.112V5.88798C61.8691 4.41598 61.2611 3.67998 60.0451 3.67998C58.8291 3.67998 58.2211 4.41598 58.2211 5.88798V18.112C58.2211 19.584 58.8291 20.32 60.0451 20.32Z" fill="white"/>
<path d="M67.5821 19.808H70.9741V23.2H67.5821V19.808Z" fill="white"/>
</svg>
